<svg width="720" height="200" xmlns="http://www.w3.org/2000/svg" xmlns:svg="http://www.w3.org/2000/svg">
    <title>logo</title>
    <g>
        <g id="svg_3">
            <g id="svg_29">
                <g stroke="null" id="svg_1">
                    <g stroke="null" id="svg_2">
                        <path stroke="null" fill="#009b83"
                            d="m84.37005,137.97012c-11.13242,0 -20.18939,-9.05697 -20.18939,-20.18939l0,-5.46158c0,-2.6115 2.11717,-4.72867 4.72867,-4.72867s4.72867,2.11717 4.72867,4.72867l0,5.46158c0,5.91737 4.81435,10.73173 10.73205,10.73173c5.91737,0 10.73173,-4.81435 10.73173,-10.73173l0,-7.30323c0,-2.6115 2.11717,-4.72867 4.72867,-4.72867s4.72867,2.11717 4.72867,4.72867l0,7.30323c0,11.13242 -9.05697,20.18939 -20.18908,20.18939l0.00001,0z"
                            id="svg_5" />
                        <g stroke="null" id="svg_6">
                            <path stroke="null" fill="#064e3b"
                                d="m154.49878,133.43893c-8.11385,0 -14.71444,-6.60091 -14.71444,-14.71444l0,-29.69102c0,-2.63858 2.13915,-4.77773 4.77773,-4.77773s4.77773,2.13915 4.77773,4.77773l0,29.69102c0,2.84466 2.31433,5.15899 5.15899,5.15899s5.15899,-2.31433 5.15899,-5.15899l0,-29.12087c0,-2.63858 2.13915,-4.77773 4.77773,-4.77773s4.77773,2.13915 4.77773,4.77773l0,29.12087c0,8.11353 -6.60059,14.71444 -14.71444,14.71444l-0.00002,0z"
                                id="svg_7" />
                        </g>
                        <g stroke="null" id="svg_8">
                            <path stroke="null" fill="#009b83"
                                d="m116.80667,144.93732c-2.63858,0 -4.77773,-2.13915 -4.77773,-4.77773s2.13915,-4.77773 4.77773,-4.77773c12.66989,0 22.97767,-10.30778 22.97767,-22.97767l0,-23.37072c0,-2.63858 2.13915,-4.77773 4.77773,-4.77773s4.77773,2.13915 4.77773,4.77773l0,23.37072c0,17.93909 -14.59404,32.53313 -32.53313,32.53313z"
                                id="svg_9" />
                        </g>
                        <path stroke="null" fill="#854d0e"
                            d="m117.44688,159.92377l0,-75.66802l-22.44767,0l0,76.29836c0,10.33135 -8.37503,18.70639 -18.70639,18.70639l60.49046,0c-10.67885,0 -19.33641,-8.65756 -19.33641,-19.33673l0.00001,0z"
                            id="svg_10" />
                        <g stroke="null" id="svg_11">
                            <path stroke="null" fill="#10b981"
                                d="m58.90032,165.71374c-8.11353,0 -14.71412,-6.60091 -14.71412,-14.71444l0,-62.39104c0,-2.63858 2.13915,-4.77773 4.77773,-4.77773s4.77773,2.13915 4.77773,4.77773l0,62.39104c0,2.84466 2.31433,5.15899 5.15867,5.15899c2.84498,0 5.15899,-2.31433 5.15899,-5.15899l0,-62.39104c0,-2.63858 2.13915,-4.77773 4.77773,-4.77773s4.77773,2.13915 4.77773,4.77773l0,62.39104c0.00032,8.11353 -6.60059,14.71444 -14.71444,14.71444l-0.00002,0z"
                                id="svg_12" />
                        </g>
                        <g stroke="null" id="svg_13">
                            <path stroke="null" fill="#009b83"
                                d="m183.24317,158.9437c-0.00064,0 -0.00127,0 -0.00223,0c-2.63858,-0.00127 -4.77677,-2.14138 -4.7755,-4.77996l0.03727,-81.03882c0.00127,-2.63794 2.1401,-4.7755 4.77773,-4.7755l0.00223,0c2.63858,0.00127 4.77677,2.14138 4.7755,4.77996l-0.03727,81.03882c-0.00127,2.63794 -2.13978,4.7755 -4.77773,4.7755z"
                                id="svg_14" />
                        </g>
                        <g stroke="null" id="svg_15">
                            <path stroke="null" fill="#009b83"
                                d="m29.71924,124.77213c-2.63858,0 -4.77773,-2.13915 -4.77773,-4.77773l0,-46.86726c0,-2.63858 2.13915,-4.77773 4.77773,-4.77773s4.77773,2.13915 4.77773,4.77773l0,46.86726c0,2.63858 -2.13915,4.77773 -4.77773,4.77773z"
                                id="svg_16" />
                        </g>
                        <g stroke="null" id="svg_17">
                            <!-- <path
                d="m497.135 512.155h-482.116c-8.284 0-15-6.716-15-15s6.716-15 15-15h482.116c8.284 0 15 6.716 15 15s-6.715 15-15 15z"
                fill="#00c600" /> -->
                        </g>
                        <path stroke="null" fill="#713f12"
                            d="m106.49984,84.25575l0,95.00443l30.28377,0c-10.67949,0 -19.33673,-8.65724 -19.33673,-19.33673l0,-75.66771l-10.94704,0l0,0.00001z"
                            id="svg_18" />
                        <!-- <path d="m497.135 482.155h-241.058v30h241.058c8.284 0 15-6.716 15-15s-6.715-15-15-15z" fill="#009b83" /> -->
                        <path stroke="null" fill="#22c55e"
                            d="m168.86062,49.64431c-4.41494,-11.53821 -15.23999,-19.69347 -27.89523,-19.69347c-4.1356,0 -8.07563,0.87114 -11.66084,2.4462c-5.96165,-5.81354 -13.97389,-9.37485 -22.78625,-9.37485c-8.81522,0 -16.83002,3.56355 -22.7923,9.38059c-3.58871,-1.57888 -7.53352,-2.45225 -11.67421,-2.45225c-12.65588,0 -23.48157,8.1559 -27.89587,19.69506c-10.71166,0.75488 -19.17747,10.03545 -19.17747,21.38032c0,11.83889 9.21687,21.43606 20.58658,21.43606c4.43023,0 8.53015,-1.46198 11.88889,-3.94131c4.32129,2.50958 9.29873,3.94131 14.59786,3.94131c6.19894,0 11.95865,-1.95696 16.74115,-5.30933c5.1351,3.36256 11.21141,5.30933 17.72536,5.30933c6.50981,0 12.58262,-1.94422 17.71549,-5.30296c4.78091,3.34823 10.5368,5.30296 16.73159,5.30296c5.30359,0 10.28485,-1.43427 14.60901,-3.94768c3.36033,2.48314 7.46344,3.94768 11.89717,3.94768c11.36971,0 20.58658,-9.59718 20.58658,-21.43606c0,-11.35188 -8.47632,-20.63723 -19.19754,-21.3816l0.00003,0z"
                            id="svg_19" />
                        <path stroke="null" fill="#15803d"
                            d="m168.86094,49.64431c-4.41494,-11.53821 -15.23999,-19.69347 -27.89523,-19.69347c-4.1356,0 -8.07563,0.87114 -11.66084,2.4462c-5.96165,-5.81354 -13.97421,-9.37485 -22.78657,-9.37485c-0.00605,0 -0.01242,0.00032 -0.01847,0.00032l0,69.43946c0.00605,0 0.0121,0.00032 0.01847,0.00032c6.50981,0 12.5823,-1.94422 17.71549,-5.30296c4.78091,3.34823 10.53711,5.30296 16.73159,5.30296c5.30391,0 10.28517,-1.43427 14.60901,-3.94768c3.36033,2.48314 7.46344,3.94768 11.89749,3.94768c11.36971,0 20.58658,-9.59718 20.58658,-21.43606c-0.00032,-11.35219 -8.47664,-20.63754 -19.19754,-21.38191l0.00002,-0.00001z"
                            id="svg_20" />
                    </g>
                </g>
                <g stroke="null" id="svg_21">
                    <g stroke="null" id="svg_22">
                        <path stroke="null"
                            d="m270.43748,70.77601c-18.94613,0 -33.82901,14.61357 -33.82901,33.28676c0,18.6732 14.88289,33.42413 33.82901,33.42413c9.47126,0 19.21364,-4.33075 26.38576,-11.22995l9.47126,10.55394c-9.60682,9.47126 -23.27326,15.56069 -36.67039,15.56069c-27.73777,0 -49.25415,-20.97413 -49.25415,-48.17146c0,-26.92801 21.78389,-47.62921 49.79459,-47.62921c13.39532,0 26.79064,5.54719 35.99258,14.61357l-9.33569,11.63482c-6.901,-7.44144 -16.77714,-12.04332 -26.38395,-12.04332l-0.00001,0.00003z"
                            fill="#fff" id="svg_23" />
                        <path stroke="null"
                            d="m361.73569,151.69198l0,-8.79525c-5.14051,6.36056 -13.39532,9.47126 -23.8137,9.47126c-15.56069,0 -25.30307,-9.60682 -25.30307,-22.32614c0,-13.126 9.87794,-21.51457 27.19733,-21.65013l21.7857,0l0,-2.16537c0,-9.06638 -5.81832,-14.47801 -17.18382,-14.47801c-6.90281,0 -14.07313,2.43469 -21.24345,7.30769l-6.36056,-10.82326c10.0135,-5.95568 17.31938,-9.06638 30.98583,-9.06638c18.53944,0 28.95782,9.47126 29.09158,25.30127l0.13556,47.22433l-15.29138,0l-0.00002,-0.00001zm-0.13556,-25.30127l0,-6.63169l-19.48476,0c-10.14726,0 -14.88469,2.70581 -14.88469,9.60682c0,6.49432 5.27788,10.68951 13.93576,10.68951c11.098,0 19.62213,-5.81651 20.43369,-13.66464z"
                            fill="#fff" id="svg_24" />
                        <path stroke="null"
                            d="m455.45232,106.90415l0,44.78964l-15.55889,0l0,-40.45889c0,-10.82507 -6.49612,-17.45495 -17.32119,-17.45495c-11.90775,0.13556 -19.3492,8.38857 -20.43188,19.62032l0,38.29352l-15.56069,0l0,-71.98697l15.56069,0l0,13.80381c5.14231,-10.0135 14.34245,-14.34425 26.52132,-14.34425c16.77894,0 26.79064,10.55394 26.79064,27.73777z"
                            fill="#fff" id="svg_25" />
                        <path stroke="null"
                            d="m537.85225,115.56565c0,21.7857 -15.29138,36.67039 -37.48376,36.67039c-22.32614,0 -37.61571,-14.88469 -37.61571,-36.67039c0,-21.65013 15.28957,-36.39927 37.61571,-36.39927c22.19238,0 37.48376,14.74913 37.48376,36.39927zm-59.53696,0.26932c0,13.93757 9.06457,23.40882 22.05501,23.40882c12.85488,0 21.92126,-9.47126 21.92126,-23.40882c0,-13.80381 -9.06638,-23.40882 -21.92126,-23.40882c-12.99044,0 -22.05501,9.60682 -22.05501,23.40882z"
                            fill="#fff" id="svg_26" />
                        <path stroke="null"
                            d="m620.83599,115.97052c0,21.51638 -13.53088,36.26551 -34.09652,36.26551c-11.50288,0 -20.16257,-4.60187 -25.44044,-12.99044l0,38.69839l-15.55889,0l0,-98.23717l15.55889,0l0,12.45c5.27788,-8.39038 13.93757,-12.99044 25.16751,-12.99044c20.43188,0 34.36945,14.88289 34.36945,36.80414l0,0.00001zm-15.69626,-0.54044c0,-13.39713 -9.06638,-23.27326 -21.92126,-23.27326c-12.85488,0 -21.92126,9.74057 -21.92126,23.27326c0,13.93757 9.06638,23.54258 21.92126,23.54258c12.85488,0 21.92126,-9.74057 21.92126,-23.54258z"
                            fill="#fff" id="svg_27" />
                        <path stroke="null"
                            d="m635.47487,178.61999c-6.49432,0 -11.63663,-1.89425 -16.64338,-6.08944l6.62988,-12.04332c3.38182,2.43469 6.08944,3.51919 9.3375,3.51919c4.73382,0 8.52594,-2.57025 10.95882,-7.98369l2.43831,-5.41344l-29.76939,-70.90428l16.10113,0l21.51638,54.53202l20.0252,-54.53202l15.56069,0l-32.74452,81.86491c-4.46812,11.36731 -12.58556,17.05007 -23.41063,17.05007l0.00001,0z"
                            fill="#fff" id="svg_28" />
                    </g>
                </g>
            </g>
        </g>
    </g>
</svg>