<?xml version="1.0" standalone="no"?>
<!DOCTYPE svg PUBLIC "-//W3C//DTD SVG 20010904//EN"
 "http://www.w3.org/TR/2001/REC-SVG-20010904/DTD/svg10.dtd">
<svg version="1.0" xmlns="http://www.w3.org/2000/svg"
 width="700.000000pt" height="700.000000pt" viewBox="0 0 700.000000 700.000000"
 preserveAspectRatio="xMidYMid meet">
<metadata>
Created by potrace 1.14, written by Peter Selinger 2001-2017
</metadata>
<g transform="translate(0.000000,700.000000) scale(0.100000,-0.100000)"
fill="#000000" stroke="none">
<path d="M3368 6995 c-2 -1 -30 -6 -62 -10 -239 -27 -509 -151 -721 -331 -53
-45 -71 -55 -84 -47 -22 14 -174 59 -241 72 -157 31 -350 29 -500 -5 -387 -87
-706 -342 -886 -708 -47 -97 -57 -110 -81 -112 -335 -34 -632 -280 -742 -615
-50 -151 -49 -149 -50 -1334 0 -1199 -3 -1135 54 -1203 72 -85 218 -88 297 -5
60 62 58 39 58 783 l0 681 67 -36 c60 -33 155 -70 208 -81 55 -13 121 -21 128
-17 4 2 8 1 8 -4 1 -4 3 -584 4 -1288 1 -704 5 -1298 8 -1320 14 -84 20 -102
60 -184 44 -91 145 -206 223 -254 225 -138 518 -127 719 26 104 80 188 201
225 324 29 95 28 86 29 506 l1 368 43 -25 c50 -30 160 -72 221 -86 203 -45
438 -13 612 84 l41 23 -2 -601 c-1 -380 -6 -619 -13 -651 -51 -239 -195 -435
-403 -549 -73 -40 -199 -86 -236 -86 -13 0 -23 -3 -23 -7 0 -5 535 -8 1189 -9
655 0 1188 3 1185 8 -3 4 -17 8 -32 8 -62 0 -213 54 -301 108 -180 110 -316
292 -373 498 -20 74 -22 105 -26 467 l-4 387 44 1 c24 1 54 2 68 4 407 44 767
255 1003 587 l48 67 49 -37 c193 -146 452 -169 667 -59 121 62 229 175 287
299 54 117 56 148 56 794 0 327 3 594 8 595 87 8 212 46 299 90 l93 46 0
-1416 0 -1417 23 -44 c32 -64 92 -103 164 -108 93 -6 165 37 203 121 16 36 17
155 16 1915 -1 1032 -5 1893 -9 1912 -64 289 -244 527 -492 653 -60 30 -202
73 -268 82 l-48 6 -44 92 c-128 268 -330 480 -582 610 -182 94 -364 138 -573
138 -149 0 -268 -19 -405 -66 l-99 -34 -42 38 c-182 169 -440 295 -695 341
-84 15 -359 26 -371 15z m-502 -2818 c38 -19 85 -42 105 -51 l36 -17 -1 -637
c-2 -620 -3 -638 -23 -694 -115 -313 -519 -405 -751 -171 -69 69 -108 136
-128 218 -19 83 -21 1195 -1 1196 6 0 19 2 27 3 8 2 40 6 70 10 152 19 330 83
474 172 l69 43 27 -19 c14 -10 57 -34 96 -53z m1480 15 c166 -99 362 -158 575
-172 9 0 3 -976 -5 -1020 -88 -447 -442 -776 -879 -815 l-67 -6 2 961 3 961
78 33 c43 19 104 50 135 69 31 20 62 36 68 36 6 1 47 -20 90 -47z m-2846 -54
c41 -19 98 -43 127 -52 l51 -17 -1 -1312 c-2 -1260 -3 -1313 -21 -1346 -91
-169 -327 -160 -402 14 -16 37 -17 136 -19 1345 0 718 1 1310 3 1317 2 6 27
24 55 39 29 14 63 34 77 44 13 10 31 15 40 11 8 -4 49 -23 90 -43z m4272 -48
c5 0 7 -279 6 -632 -3 -567 -5 -636 -20 -663 -91 -167 -323 -160 -400 12 -17
40 -19 77 -18 649 0 334 2 609 4 612 3 2 51 23 109 46 57 24 114 50 126 58 21
15 27 13 103 -33 45 -27 85 -49 90 -49z"/>
</g>
</svg>
